<?xml version="1.0" encoding="utf-8"?>
<!-- Generator: Adobe Illustrator 15.0.0, SVG Export Plug-In . SVG Version: 6.00 Build 0)  -->
<!DOCTYPE svg PUBLIC "-//W3C//DTD SVG 1.1//EN" "http://www.w3.org/Graphics/SVG/1.1/DTD/svg11.dtd">
<svg version="1.1"
	 id="svg2" sodipodi:docname="SkyDrive logo.svg" inkscape:version="0.48.2 r9819" xmlns:svg="http://www.w3.org/2000/svg" xmlns:dc="http://purl.org/dc/elements/1.1/" xmlns:inkscape="http://www.inkscape.org/namespaces/inkscape" xmlns:sodipodi="http://sodipodi.sourceforge.net/DTD/sodipodi-0.dtd" xmlns:cc="http://creativecommons.org/ns#" xmlns:rdf="http://www.w3.org/1999/02/22-rdf-syntax-ns#"
	 xmlns="http://www.w3.org/2000/svg" xmlns:xlink="http://www.w3.org/1999/xlink" x="0px" y="0px" width="32.003px"
	 height="32.003px" viewBox="0.699 -0.383 32.003 32.003" enable-background="new 0.699 -0.383 32.003 32.003" xml:space="preserve"
	>
<title  id="title5158">SkyDrive logo</title>
<sodipodi:namedview  id="base" fit-margin-bottom="1" fit-margin-right="1" inkscape:window-y="-8" inkscape:window-x="-8" inkscape:window-height="706" inkscape:window-width="1366" inkscape:current-layer="g3986" inkscape:document-units="px" inkscape:pageshadow="2" inkscape:pageopacity="0.0" fit-margin-top="1" bordercolor="#666666" fit-margin-left="1" inkscape:cx="816.1515" showgrid="false" borderopacity="1.0" inkscape:zoom="0.7" pagecolor="#ffffff" inkscape:cy="148.6984" inkscape:window-maximized="1">
	</sodipodi:namedview>
<g id="layer1" transform="translate(296.64282,-173.95523)" inkscape:groupmode="layer" inkscape:label="Layer 1">
	<g id="g3986" transform="translate(222.85714,-11.428576)">
		<path id="path4256" inkscape:connector-curvature="0" fill="#1D00DF" d="M-497.611,208.819c-0.351,0.088-2.386,0.11-8.787,0.099
			l-8.33-0.017l-0.375-0.2c-0.797-0.427-1.3-1.286-1.383-2.362c-0.126-1.646,0.573-2.766,2.062-3.299l0.521-0.188l0.058-0.713
			c0.213-2.604,2.851-4.164,5.498-3.248l0.546,0.189l0.611-0.641c1.11-1.166,1.904-1.511,3.493-1.519
			c1.12-0.007,1.588,0.098,2.514,0.562c0.884,0.443,1.712,1.526,2.16,2.826c0.098,0.286,0.179,0.609,0.179,0.717
			c0,0.346,0.208,0.495,0.885,0.634c1.36,0.279,2.393,1.038,2.783,2.044c0.159,0.41,0.205,0.715,0.204,1.353
			C-494.977,207.052-495.919,208.395-497.611,208.819L-497.611,208.819z"/>
		<path id="path4248" inkscape:connector-curvature="0" fill="#1D00DF" d="M-491.366,207.669c-0.357,0.085-2.941,0.111-3.021,0.031
			c-0.032-0.031,0.023-0.215,0.123-0.409c0.262-0.513,0.451-1.409,0.451-2.143c0-2.013-1.211-3.586-3.289-4.267
			c-0.671-0.221-0.828-0.318-0.828-0.512c0-0.273-0.496-1.375-0.884-1.965c-0.545-0.828-1.267-1.464-2.165-1.906
			c-2.248-1.108-4.893-0.758-6.513,0.862l-0.574,0.575l-0.63-0.164c-0.347-0.091-0.743-0.167-0.881-0.17
			c-0.317-0.006-0.331-0.232-0.062-1.038c0.842-2.522,3.118-4.173,5.76-4.18c0.945-0.002,1.735,0.173,2.496,0.555
			c0.704,0.354,1.563,1.049,1.99,1.606c0.72,0.944,0.682,0.915,1.022,0.779c1.073-0.429,2.313-0.505,3.3-0.2
			c1.827,0.564,3.135,2.321,3.213,4.314c0.013,0.321,0.052,0.631,0.087,0.688c0.036,0.057,0.259,0.152,0.496,0.212
			c1.123,0.282,2.018,1.003,2.485,1.999c0.221,0.473,0.245,0.626,0.245,1.578c0,1-0.014,1.084-0.293,1.649
			C-489.332,206.561-490.379,207.434-491.366,207.669L-491.366,207.669z"/>
		<g id="text4313">
		</g>
	</g>
</g>
</svg>
