<?xml version="1.0" encoding="utf-8"?>
<!-- Generator: Adobe Illustrator 15.0.0, SVG Export Plug-In . SVG Version: 6.00 Build 0)  -->
<!DOCTYPE svg PUBLIC "-//W3C//DTD SVG 1.1//EN" "http://www.w3.org/Graphics/SVG/1.1/DTD/svg11.dtd">
<svg version="1.1"
	 id="svg2" sodipodi:docname="SkyDrive logo.svg" inkscape:version="0.48.2 r9819" xmlns:svg="http://www.w3.org/2000/svg" xmlns:dc="http://purl.org/dc/elements/1.1/" xmlns:inkscape="http://www.inkscape.org/namespaces/inkscape" xmlns:sodipodi="http://sodipodi.sourceforge.net/DTD/sodipodi-0.dtd" xmlns:cc="http://creativecommons.org/ns#" xmlns:rdf="http://www.w3.org/1999/02/22-rdf-syntax-ns#"
	 xmlns="http://www.w3.org/2000/svg" xmlns:xlink="http://www.w3.org/1999/xlink" x="0px" y="0px" width="142.471px"
	 height="31.238px" viewBox="0 0 142.471 31.238" enable-background="new 0 0 142.471 31.238" xml:space="preserve">
<title  id="title5158">SkyDrive logo</title>
<sodipodi:namedview  id="base" inkscape:pageopacity="0.0" inkscape:pageshadow="2" inkscape:document-units="px" inkscape:current-layer="g3986" inkscape:window-width="1366" inkscape:window-height="706" inkscape:window-x="-8" inkscape:window-y="-8" fit-margin-right="1" fit-margin-bottom="1" borderopacity="1.0" showgrid="false" fit-margin-left="1" bordercolor="#666666" fit-margin-top="1" inkscape:cy="148.6984" pagecolor="#ffffff" inkscape:zoom="0.7" inkscape:cx="816.1515" inkscape:window-maximized="1">
	</sodipodi:namedview>
<g id="layer1" transform="translate(296.64282,-173.95523)" inkscape:label="Layer 1" inkscape:groupmode="layer">
	<g id="g3986" transform="translate(222.85714,-11.428576)">
		<path id="path4256" inkscape:connector-curvature="0" fill="#FFFFFF" d="M-479.595,215.753c-0.649,0.163-4.41,0.205-16.237,0.181
			l-15.392-0.029l-0.693-0.37c-1.473-0.789-2.403-2.377-2.556-4.366c-0.234-3.042,1.059-5.11,3.809-6.096l0.963-0.345l0.107-1.317
			c0.393-4.814,5.268-7.694,10.158-6.002l1.01,0.349l1.128-1.184c2.051-2.154,3.518-2.792,6.456-2.807
			c2.069-0.012,2.933,0.182,4.644,1.039c1.634,0.819,3.164,2.821,3.99,5.222c0.182,0.529,0.331,1.125,0.331,1.325
			c0,0.638,0.385,0.914,1.635,1.171c2.513,0.516,4.422,1.917,5.143,3.776c0.294,0.758,0.379,1.323,0.377,2.501
			C-474.728,212.487-476.469,214.971-479.595,215.753L-479.595,215.753z"/>
		<path id="path4248" inkscape:connector-curvature="0" fill="#FFFFFF" d="M-468.056,213.627c-0.66,0.157-5.435,0.207-5.583,0.058
			c-0.059-0.058,0.043-0.398,0.226-0.756c0.484-0.949,0.833-2.605,0.833-3.959c0.001-3.72-2.239-6.626-6.077-7.885
			c-1.24-0.407-1.53-0.586-1.53-0.945c0-0.505-0.916-2.54-1.634-3.631c-1.007-1.53-2.341-2.705-4-3.522
			c-4.154-2.047-9.041-1.4-12.035,1.594l-1.062,1.062l-1.164-0.303c-0.64-0.167-1.373-0.308-1.628-0.313
			c-0.586-0.012-0.611-0.43-0.114-1.918c1.556-4.66,5.762-7.712,10.644-7.724c1.746-0.005,3.206,0.32,4.611,1.025
			c1.301,0.653,2.89,1.937,3.677,2.967c1.33,1.745,1.259,1.691,1.888,1.439c1.984-0.793,4.274-0.932,6.098-0.369
			c3.375,1.042,5.793,4.289,5.937,7.973c0.023,0.593,0.096,1.165,0.161,1.269c0.065,0.105,0.477,0.281,0.915,0.392
			c2.075,0.522,3.729,1.853,4.591,3.694c0.41,0.874,0.454,1.156,0.454,2.915c0,1.85-0.027,2.003-0.542,3.048
			C-464.298,211.581-466.232,213.193-468.056,213.627L-468.056,213.627z"/>
		<g id="text4313">
		</g>
	</g>
</g>
<g>
	<path fill="#FFFFFF" d="M67.525,28.649c-0.705,0.422-1.541,0.635-2.508,0.635c-1.307,0-2.362-0.425-3.165-1.276
		c-0.802-0.851-1.204-1.954-1.204-3.309c0-1.509,0.432-2.724,1.298-3.64c0.865-0.916,2.021-1.375,3.465-1.375
		c0.806,0,1.517,0.15,2.131,0.447v1.505c-0.681-0.477-1.41-0.716-2.185-0.716c-0.938,0-1.706,0.336-2.307,1.007
		c-0.601,0.673-0.899,1.555-0.899,2.647c0,1.075,0.282,1.922,0.847,2.543c0.563,0.621,1.32,0.931,2.27,0.931
		c0.8,0,1.553-0.266,2.257-0.797L67.525,28.649L67.525,28.649L67.525,28.649z"/>
	<path fill="#FFFFFF" d="M69.118,24.687"/>
	<path fill="#FFFFFF" d="M82.044,17.572c-0.264,0-0.487-0.09-0.672-0.268c-0.184-0.18-0.278-0.406-0.278-0.681
		s0.093-0.503,0.278-0.686c0.185-0.182,0.409-0.273,0.672-0.273c0.268,0,0.497,0.091,0.684,0.273
		c0.188,0.182,0.282,0.411,0.282,0.686c0,0.263-0.094,0.487-0.282,0.671C82.541,17.48,82.313,17.572,82.044,17.572z M82.76,29.07
		h-1.469v-9.169h1.469V29.07z"/>
	<path fill="#FFFFFF" d="M78.541,29.07h-1.469v-5.229c0-1.947-0.71-2.92-2.13-2.92c-0.735,0-1.342,0.277-1.822,0.829
		c-0.481,0.552-0.721,1.248-0.721,2.089v5.23H70.93v-9.17h1.469v1.522h0.036c0.692-1.158,1.695-1.737,3.008-1.737
		c1.003,0,1.77,0.324,2.302,0.973c0.532,0.646,0.796,1.583,0.796,2.807V29.07L78.541,29.07z"/>
	<path fill="#FFFFFF" d="M85.527,28.739v-1.576c0.801,0.591,1.681,0.886,2.642,0.886c1.29,0,1.933-0.43,1.933-1.29
		c0-0.245-0.053-0.452-0.165-0.622c-0.111-0.171-0.26-0.321-0.448-0.453c-0.188-0.13-0.409-0.249-0.663-0.354
		c-0.254-0.104-0.528-0.212-0.82-0.326c-0.406-0.161-0.763-0.324-1.07-0.487c-0.308-0.164-0.564-0.35-0.771-0.556
		c-0.206-0.205-0.361-0.438-0.466-0.703c-0.104-0.262-0.156-0.57-0.156-0.922c0-0.43,0.098-0.811,0.295-1.141
		c0.198-0.331,0.459-0.609,0.787-0.833c0.329-0.224,0.704-0.392,1.125-0.507c0.421-0.113,0.856-0.17,1.304-0.17
		c0.793,0,1.504,0.138,2.13,0.411v1.487c-0.674-0.442-1.45-0.664-2.328-0.664c-0.274,0-0.522,0.031-0.744,0.094
		c-0.22,0.064-0.41,0.152-0.567,0.265c-0.158,0.113-0.281,0.249-0.368,0.407c-0.086,0.16-0.13,0.333-0.13,0.524
		c0,0.239,0.043,0.439,0.13,0.599c0.088,0.162,0.213,0.305,0.381,0.431c0.167,0.125,0.37,0.239,0.609,0.34
		c0.239,0.101,0.511,0.212,0.816,0.33c0.405,0.156,0.77,0.315,1.091,0.479c0.322,0.164,0.597,0.349,0.823,0.554
		c0.228,0.206,0.402,0.443,0.524,0.712c0.123,0.269,0.183,0.588,0.183,0.958c0,0.454-0.1,0.848-0.3,1.182
		c-0.2,0.335-0.466,0.612-0.801,0.833c-0.335,0.221-0.72,0.385-1.155,0.492c-0.435,0.106-0.892,0.161-1.37,0.161
		C87.038,29.285,86.22,29.102,85.527,28.739z"/>
</g>
<path fill="#FFFFFF" d="M101.675,28.114c-0.633,0.38-1.385,0.571-2.254,0.571c-1.175,0-2.125-0.382-2.846-1.147
	c-0.721-0.765-1.082-1.757-1.082-2.975c0-1.357,0.389-2.45,1.167-3.273c0.778-0.824,1.816-1.236,3.117-1.236
	c0.725,0,1.363,0.134,1.916,0.402v1.354c-0.612-0.429-1.267-0.644-1.965-0.644c-0.843,0-1.534,0.302-2.074,0.906
	c-0.54,0.604-0.809,1.398-0.809,2.38c0,0.966,0.253,1.729,0.761,2.287c0.507,0.559,1.188,0.837,2.042,0.837
	c0.72,0,1.396-0.238,2.029-0.717L101.675,28.114L101.675,28.114z"/>
<path fill="#FFFFFF" d="M133.796,28.479h-1.321v-1.401h-0.032c-0.612,1.063-1.557,1.595-2.834,1.595
	c-1.036,0-1.865-0.369-2.485-1.107c-0.62-0.739-0.929-1.743-0.929-3.015c0-1.363,0.343-2.457,1.031-3.278
	c0.686-0.822,1.602-1.232,2.746-1.232c1.132,0,1.957,0.446,2.472,1.336h0.032v-5.104h1.321V28.479L133.796,28.479z M132.477,24.751
	v-1.216c0-0.665-0.22-1.229-0.661-1.691c-0.44-0.461-0.999-0.693-1.674-0.693c-0.806,0-1.44,0.295-1.901,0.885
	c-0.461,0.592-0.692,1.407-0.692,2.449c0,0.949,0.222,1.701,0.664,2.25c0.443,0.549,1.037,0.824,1.783,0.824
	c0.735,0,1.333-0.265,1.792-0.797S132.477,25.562,132.477,24.751z"/>
<path fill="#FFFFFF" d="M105.174,28.479h-1.32V16.273h1.32V28.479z"/>
<path fill="#FFFFFF" d="M110.919,28.686c-1.219,0-2.192-0.385-2.919-1.155c-0.728-0.771-1.091-1.792-1.091-3.065
	c0-1.385,0.378-2.465,1.136-3.245c0.757-0.778,1.779-1.167,3.068-1.167c1.229,0,2.189,0.378,2.878,1.135
	c0.689,0.757,1.036,1.807,1.036,3.148c0,1.316-0.373,2.369-1.117,3.16C113.167,28.289,112.169,28.686,110.919,28.686z
	 M111.015,21.165c-0.848,0-1.518,0.288-2.012,0.867c-0.494,0.576-0.74,1.372-0.74,2.388c0,0.978,0.25,1.747,0.749,2.311
	c0.499,0.565,1.167,0.846,2.005,0.846c0.854,0,1.509-0.276,1.969-0.831c0.46-0.552,0.688-1.338,0.688-2.358
	c0-1.031-0.229-1.824-0.688-2.384C112.525,21.445,111.869,21.165,111.015,21.165z"/>
<path fill="#FFFFFF" d="M123.598,28.492h-1.321v-1.305h-0.033c-0.547,0.999-1.396,1.497-2.544,1.497
	c-1.964,0-2.947-1.17-2.947-3.511v-4.928h1.313v4.719c0,1.739,0.665,2.609,1.997,2.609c0.644,0,1.174-0.237,1.59-0.712
	c0.417-0.475,0.625-1.096,0.625-1.864v-4.751h1.32L123.598,28.492L123.598,28.492z"/>
</svg>
